<svg width="405" height="89" viewBox="0 0 405 89" fill="none" xmlns="http://www.w3.org/2000/svg">
<path d="M62.237 62.2192C60.4509 64.0053 57.2895 67.0149 54.9497 69.1225C54.7622 69.2922 54.5478 69.3815 54.2978 69.3904C51.1542 69.5601 46.7961 69.6673 44.2598 69.6673C41.7236 69.6673 37.3744 69.5601 34.2219 69.3904C33.9718 69.3726 33.7575 69.2833 33.57 69.1225C31.2212 67.0238 28.0687 64.0142 26.2826 62.2192C24.4965 60.4331 21.4869 57.2717 19.3793 54.9319C19.2096 54.7443 19.1203 54.53 19.1114 54.2799C18.9417 51.1364 18.8345 46.7783 18.8345 44.242C18.8345 41.7057 18.9417 37.3565 19.1114 34.204C19.1293 33.954 19.2186 33.7396 19.3793 33.5521C21.478 31.2034 24.4876 28.0509 26.2826 26.2648C28.0687 24.4787 31.2302 21.4691 33.57 19.3614C33.7575 19.1918 33.9718 19.1025 34.2219 19.0935C37.3654 18.9239 41.7236 18.8167 44.2598 18.8167C46.7961 18.8167 51.1453 18.9239 54.2978 19.0935C54.5478 19.1114 54.7622 19.2007 54.9497 19.3614C57.2984 21.4601 60.4509 24.4697 62.237 26.2648C64.3 28.3277 67.9883 32.2036 70.0334 34.5702C70.3817 34.9721 70.9801 34.9899 71.3641 34.6327L83.5989 23.2194C84.0276 22.8176 84.0633 22.1567 83.6793 21.7102C81.3663 19.0042 77.8298 15.2623 75.5257 12.9672C73.2306 10.672 69.4887 7.13552 66.7827 4.81357C66.3362 4.42956 65.6753 4.47421 65.2734 4.89395L57.3342 13.3958C57.1377 13.6102 56.7894 13.4583 56.7983 13.1726L57.2002 1.54499C57.2181 0.9645 56.7805 0.464389 56.2 0.419736C52.6456 0.142889 47.5016 0 44.2509 0C41.0002 0 35.8115 0.142889 32.2572 0.428667C31.7035 0.47332 31.2748 0.937708 31.2927 1.4914C31.382 4.04554 31.6142 10.8417 31.6945 13.1904C31.7035 13.4762 31.3552 13.6102 31.1676 13.4048L23.2194 4.88501C22.8176 4.45635 22.1567 4.42063 21.7102 4.80464C19.0042 7.11765 15.2623 10.6542 12.9672 12.9582C10.672 15.2534 7.13551 18.9953 4.81357 21.7013C4.42956 22.1478 4.47421 22.8086 4.89394 23.2105L13.3958 31.1498C13.6102 31.3463 13.4583 31.6945 13.1726 31.6856L1.54499 31.2837C0.9645 31.2659 0.464389 31.7035 0.419736 32.284C0.142889 35.8383 0 40.9823 0 44.233C0 47.4838 0.142889 52.6724 0.428667 56.2268C0.473319 56.7805 0.937708 57.2091 1.4914 57.1913C4.04554 57.102 10.8417 56.8698 13.1904 56.7894C13.4762 56.7805 13.6102 57.1288 13.4048 57.3163L4.88501 65.2645C4.45635 65.6664 4.42063 66.3272 4.80464 66.7738C7.11765 69.4797 10.6542 73.2216 12.9582 75.5168C15.2534 77.8119 18.9953 81.3484 21.7013 83.6704C22.1478 84.0544 22.8086 84.0097 23.2105 83.59L31.1498 75.0881C31.3462 74.8738 31.6945 75.0256 31.6856 75.3114L31.2837 86.939C31.2659 87.5195 31.7035 88.0196 32.284 88.0642C35.8383 88.3411 40.9823 88.484 44.233 88.484C47.4838 88.484 52.6724 88.3411 56.2268 88.0553C56.7805 88.0106 57.2091 87.5463 57.1913 86.9926C57.102 84.4384 56.8698 77.6423 56.7894 75.2935C56.7805 75.0078 57.1288 74.8738 57.3163 75.0792L65.2645 83.5989C65.6664 84.0276 66.3272 84.0633 66.7738 83.6793C69.4797 81.3663 73.2216 77.8298 75.5168 75.5257C77.8119 73.2306 81.3484 69.4887 83.6704 66.7827C84.0544 66.3362 84.0097 65.6753 83.59 65.2734L71.3551 53.8602C70.9711 53.503 70.3638 53.5208 70.0245 53.9227C67.9794 56.2804 64.2821 60.1652 62.2281 62.2281L62.237 62.2192Z" fill="#BADCD3"/>
<path d="M262.122 12.4961C244.583 12.4961 230.365 26.7135 230.365 44.2532C230.365 61.7928 244.583 76.0102 262.122 76.0102C279.662 76.0102 293.879 61.7928 293.879 44.2532C293.879 26.7135 279.662 12.4961 262.122 12.4961ZM262.122 63.2038C251.736 63.2038 243.315 54.7198 243.315 44.2442C243.315 33.7687 251.736 25.2846 262.122 25.2846C272.509 25.2846 280.93 33.7687 280.93 44.2442C280.93 54.7198 272.509 63.2038 262.122 63.2038Z" fill="#BADCD3"/>
<path d="M342.44 54.0778L317.675 14.9709C317.577 14.8102 317.399 14.7119 317.202 14.7119H306.048C305.744 14.7119 305.494 14.962 305.494 15.2656V74.0644C305.494 74.368 305.744 74.6181 306.048 74.6181H317.336C317.649 74.6181 317.899 74.368 317.89 74.0555L317.524 35.2433L342.288 74.3502C342.386 74.5109 342.565 74.6092 342.761 74.6092H353.916C354.219 74.6092 354.469 74.3591 354.469 74.0555V15.2656C354.469 14.962 354.219 14.7119 353.916 14.7119H342.627C342.315 14.7119 342.065 14.962 342.074 15.2745L342.44 54.0778Z" fill="#BADCD3"/>
<path d="M404.999 26.3038V15.2656C404.999 14.962 404.749 14.7119 404.446 14.7119H367.634C367.33 14.7119 367.08 14.962 367.08 15.2656V74.0644C367.08 74.368 367.33 74.6181 367.634 74.6181H404.446C404.749 74.6181 404.999 74.368 404.999 74.0644V63.0262C404.999 62.7226 404.749 62.4725 404.446 62.4725H379.708V50.7288H400.266C400.57 50.7288 400.82 50.4788 400.82 50.1752V39.1548C400.82 38.8512 400.57 38.6012 400.266 38.6012H379.708V26.8575H404.446C404.749 26.8575 404.999 26.6074 404.999 26.3038Z" fill="#BADCD3"/>
<path d="M218.192 14.7119H191.338C191.034 14.7119 190.784 14.962 190.784 15.2656V26.7414C190.784 27.045 191.034 27.2951 191.338 27.2951H206.118V49.7643C206.118 49.9162 206.055 50.0501 205.957 50.1573L187.569 68.5453C187.355 68.7596 187.355 69.1169 187.569 69.3312L195.928 77.6902C196.142 77.9045 196.5 77.9045 196.714 77.6902L218.585 55.8193C218.692 55.7121 218.746 55.5692 218.746 55.4263V15.2656C218.746 14.962 218.495 14.7119 218.192 14.7119Z" fill="#BADCD3"/>
<path d="M153.577 63.2112C143.191 63.2112 134.769 54.7272 134.769 44.2516C134.769 33.785 143.191 25.2921 153.577 25.2921C160.721 25.2921 166.374 29.3198 170.384 34.9639C170.572 35.2318 170.938 35.2764 171.188 35.071L179.993 27.5783C180.208 27.3908 180.261 27.0693 180.101 26.8371C173.385 16.6205 160.962 10.4941 147.334 13.0929C134.34 15.5756 124.49 25.6672 122.293 38.7147C118.917 58.7013 134.224 76.0087 153.577 76.0087C164.678 76.0087 174.421 70.3021 180.101 61.6752C180.252 61.434 180.208 61.1125 179.993 60.9339L171.188 53.4412C170.938 53.2268 170.572 53.2804 170.384 53.5483C166.374 59.1835 160.73 63.2201 153.577 63.2201V63.2112Z" fill="#BADCD3"/>
</svg>
