<svg width="134" height="31" viewBox="0 0 134 31" fill="none" xmlns="http://www.w3.org/2000/svg">
<path d="M66.5966 0C58.3217 0 51.6143 6.70749 51.6143 14.9823C51.6143 23.2571 58.3217 29.9646 66.5966 29.9646C74.8714 29.9646 81.5789 23.2571 81.5789 14.9823C81.5789 6.70749 74.8714 0 66.5966 0ZM66.5966 23.9228C61.6966 23.9228 57.7235 19.9202 57.7235 14.9781C57.7235 10.0359 61.6966 6.03337 66.5966 6.03337C71.4966 6.03337 75.4696 10.0359 75.4696 14.9781C75.4696 19.9202 71.4966 23.9228 66.5966 23.9228Z" fill="#BADCD3"/>
<path d="M104.486 19.6189L92.8025 1.16906C92.7562 1.09322 92.6719 1.04688 92.5792 1.04688H87.3169C87.1736 1.04688 87.0557 1.16485 87.0557 1.3081V29.0481C87.0557 29.1914 87.1736 29.3093 87.3169 29.3093H92.6424C92.7899 29.3093 92.9079 29.1914 92.9037 29.0439L92.7309 10.7331L104.414 29.1829C104.461 29.2588 104.545 29.3051 104.638 29.3051H109.9C110.043 29.3051 110.161 29.1871 110.161 29.0439V1.3081C110.161 1.16485 110.043 1.04688 109.9 1.04688H104.574C104.427 1.04688 104.309 1.16485 104.313 1.31231L104.486 19.6189Z" fill="#BADCD3"/>
<path d="M134 6.51567V1.3081C134 1.16485 133.882 1.04688 133.739 1.04688H116.372C116.228 1.04688 116.11 1.16485 116.11 1.3081V29.0481C116.11 29.1914 116.228 29.3093 116.372 29.3093H133.739C133.882 29.3093 134 29.1914 134 29.0481V23.8405C134 23.6973 133.882 23.5793 133.739 23.5793H122.068V18.0389H131.767C131.91 18.0389 132.028 17.9209 132.028 17.7777V12.5785C132.028 12.4353 131.91 12.3173 131.767 12.3173H122.068V6.77689H133.739C133.882 6.77689 134 6.65892 134 6.51567Z" fill="#BADCD3"/>
<path d="M45.8707 1.04688H33.2015C33.0582 1.04688 32.9403 1.16485 32.9403 1.3081V6.72212C32.9403 6.86537 33.0582 6.98334 33.2015 6.98334H40.1744V17.5839C40.1744 17.6555 40.1449 17.7187 40.0986 17.7692L31.4235 26.4443C31.3224 26.5454 31.3224 26.714 31.4235 26.8151L35.3671 30.7587C35.4682 30.8598 35.6367 30.8598 35.7379 30.7587L46.0561 20.4404C46.1067 20.3899 46.1319 20.3225 46.1319 20.2551V1.3081C46.1319 1.16485 46.014 1.04688 45.8707 1.04688Z" fill="#BADCD3"/>
<path d="M15.3865 23.9263C10.4864 23.9263 6.51336 19.9237 6.51336 14.9816C6.51336 10.0437 10.4864 6.03687 15.3865 6.03687C18.757 6.03687 21.424 7.93704 23.3158 10.5998C23.4043 10.7262 23.577 10.7473 23.695 10.6504L27.8492 7.11546C27.9504 7.02698 27.9756 6.8753 27.8998 6.76576C24.7314 1.94581 18.8708 -0.94448 12.4414 0.281574C6.31112 1.45286 1.66392 6.21382 0.627457 12.3694C-0.965149 21.7986 6.25635 29.9639 15.3865 29.9639C20.6235 29.9639 25.2202 27.2716 27.8998 23.2016C27.9714 23.0879 27.9504 22.9362 27.8492 22.8519L23.695 19.317C23.577 19.2159 23.4043 19.2412 23.3158 19.3676C21.424 22.0261 18.7613 23.9305 15.3865 23.9305V23.9263Z" fill="#BADCD3"/>
</svg>
