<svg xmlns="http://www.w3.org/2000/svg" width="84" height="94" fill="none"><path fill="#798985" d="M74.132 35.434a1.15 1.15 0 0 1-1.65-.077c-1.572-1.78-4.086-4.42-5.528-5.861-1.442-1.442-4.081-3.957-5.861-5.527a1.15 1.15 0 0 1-.078-1.651l7.994-8.567a1.15 1.15 0 0 1 1.595-.09c2 1.73 4.647 4.234 6.299 5.886 1.652 1.651 4.156 4.297 5.886 6.298a1.15 1.15 0 0 1-.09 1.595zM74.132 58.084a1.15 1.15 0 0 0-1.65.077c-1.572 1.781-4.086 4.42-5.528 5.862s-4.081 3.956-5.861 5.527a1.15 1.15 0 0 0-.078 1.65l7.994 8.568a1.15 1.15 0 0 0 1.595.09c2-1.73 4.647-4.234 6.299-5.886s4.156-4.298 5.886-6.298a1.15 1.15 0 0 0-.09-1.596zM57.692 21.912a1.15 1.15 0 0 1-1.222 1.113c-2.37-.148-6.014-.236-8.053-.236s-5.684.088-8.053.236c-.65.04-1.2-.462-1.222-1.113l-.406-11.71A1.15 1.15 0 0 1 39.8 9.01c2.638-.191 6.28-.292 8.616-.292s5.978.1 8.616.292a1.15 1.15 0 0 1 1.064 1.192l-.406 11.71z"/><path fill="#043D2F" d="M21.912 37.572c.65.023 1.154.572 1.113 1.222-.148 2.37-.236 6.013-.236 8.053s.088 5.683.236 8.053c.04.65-.462 1.2-1.113 1.222l-11.71.406a1.15 1.15 0 0 1-1.192-1.064c-.191-2.638-.292-6.28-.292-8.616s.1-5.978.292-8.616a1.15 1.15 0 0 1 1.192-1.064l11.71.405"/><path fill="#798985" d="M57.675 71.668a1.15 1.15 0 0 0-1.222-1.114c-2.37.15-6.013.237-8.053.237s-5.683-.088-8.053-.236c-.65-.04-1.2.462-1.222 1.112l-.406 11.71a1.15 1.15 0 0 0 1.064 1.193c2.638.19 6.28.292 8.616.292s5.978-.101 8.616-.292a1.15 1.15 0 0 0 1.064-1.192l-.405-11.71M35.837 22.32c.444.476.41 1.218-.079 1.649-1.78 1.57-4.42 4.084-5.861 5.526-1.443 1.443-3.957 4.082-5.527 5.862a1.15 1.15 0 0 1-1.651.077l-8.567-7.993a1.15 1.15 0 0 1-.09-1.596c1.73-2 4.233-4.646 5.885-6.298s4.298-4.156 6.299-5.887a1.15 1.15 0 0 1 1.594.09zM35.55 71.199a1.15 1.15 0 0 0-.079-1.649c-1.78-1.571-4.42-4.085-5.861-5.527-1.443-1.442-3.957-4.081-5.527-5.861a1.15 1.15 0 0 0-1.651-.078l-8.567 7.994a1.15 1.15 0 0 0-.091 1.595c1.73 2 4.234 4.647 5.886 6.299 1.652 1.651 4.298 4.156 6.299 5.886a1.15 1.15 0 0 0 1.594-.089z"/></svg>