<svg width="32" height="32" viewBox="0 0 32 32" fill="none" xmlns="http://www.w3.org/2000/svg">
<path d="M10.5142 0.5H21.4824C22.081 0.5 22.6568 0.737959 23.0781 1.15919L23.0781 1.15926L30.8397 8.91735C30.8399 8.91759 30.8401 8.91783 30.8404 8.91807C31.2629 9.34381 31.5 9.91687 31.5 10.5142V21.4858C31.5 22.0844 31.262 22.6603 30.8408 23.0815L23.0826 30.8396C23.0825 30.8398 23.0823 30.84 23.0821 30.8402C22.6563 31.2629 22.0832 31.5 21.4858 31.5H10.5142C9.9156 31.5 9.33975 31.262 8.91852 30.8408L1.16035 23.0826C1.16016 23.0825 1.15996 23.0823 1.15977 23.0821C0.737121 22.6563 0.5 22.0832 0.5 21.4858V10.5142C0.5 9.9156 0.737958 9.33975 1.15919 8.91852L8.91735 1.16035C8.91756 1.16014 8.91777 1.15993 8.91798 1.15972C9.34373 0.737103 9.91684 0.5 10.5142 0.5Z" stroke="#BADCC3"/>
<rect x="9" y="11" width="14" height="1" fill="#BADCD3"/>
<rect x="9" y="16" width="14" height="1" fill="#BADCD3"/>
<rect x="9" y="21" width="14" height="1" fill="#BADCD3"/>
</svg>
