<svg width="32" height="32" viewBox="0 0 32 32" fill="none" xmlns="http://www.w3.org/2000/svg">
<path d="M21.4858 0H10.5142C9.78366 0 9.08385 0.290164 8.56497 0.805633L0.805633 8.56497C0.290164 9.08044 0 9.78366 0 10.5142V21.4858C0 22.2163 0.290164 22.9162 0.805633 23.435L8.56497 31.1944C9.08044 31.7098 9.78366 32 10.5142 32H21.4858C22.2163 32 22.9162 31.7098 23.435 31.1944L31.1944 23.435C31.7098 22.9196 32 22.2163 32 21.4858V10.5142C32 9.78366 31.7098 9.08385 31.1944 8.56497L23.4316 0.805633C22.9162 0.290164 22.2129 0 21.4824 0H21.4858Z" fill="#043D2F"/>
</svg>
