<svg width="55" height="58" viewBox="0 0 55 58" fill="none" xmlns="http://www.w3.org/2000/svg">
<path d="M40.9301 40.5171C39.7724 41.6748 37.7232 43.6256 36.2066 44.9917C36.0851 45.1016 35.9461 45.1595 35.7841 45.1653C33.7465 45.2753 30.9217 45.3448 29.2778 45.3448C27.6338 45.3448 24.8148 45.2753 22.7715 45.1653C22.6094 45.1537 22.4705 45.0958 22.3489 44.9917C20.8265 43.6314 18.7832 41.6806 17.6255 40.5171C16.4678 39.3594 14.517 37.3103 13.1509 35.7937C13.041 35.6721 12.9831 35.5332 12.9773 35.3711C12.8673 33.3336 12.7978 30.5088 12.7978 28.8648C12.7978 27.2209 12.8673 24.4019 12.9773 22.3585C12.9889 22.1964 13.0467 22.0575 13.1509 21.936C14.5112 20.4136 16.462 18.3702 17.6255 17.2125C18.7832 16.0548 20.8323 14.1041 22.3489 12.738C22.4705 12.628 22.6094 12.5701 22.7715 12.5643C24.809 12.4544 27.6338 12.3849 29.2778 12.3849C30.9217 12.3849 33.7407 12.4544 35.7841 12.5643C35.9461 12.5759 36.0851 12.6338 36.2066 12.738C37.729 14.0983 39.7724 16.049 40.9301 17.2125C42.2672 18.5497 44.6579 21.0619 45.9834 22.5959C46.2092 22.8563 46.597 22.8679 46.8459 22.6364L54.7762 15.2386C55.0541 14.9782 55.0772 14.5498 54.8283 14.2604C53.3291 12.5065 51.0368 10.0811 49.5434 8.59341C48.0557 7.10576 45.6303 4.81351 43.8764 3.30849C43.587 3.05958 43.1586 3.08853 42.8982 3.36059L37.7522 8.87126C37.6248 9.01019 37.3991 8.91178 37.4049 8.72655L37.6653 1.18989C37.6769 0.813637 37.3933 0.48948 37.017 0.460537C34.7132 0.281093 31.379 0.188477 29.272 0.188477C27.165 0.188477 23.8018 0.281093 21.498 0.466326C21.1391 0.495268 20.8613 0.796272 20.8728 1.15516C20.9307 2.81068 21.0812 7.21574 21.1333 8.73813C21.1391 8.92336 20.9133 9.01019 20.7918 8.87705L15.64 3.3548C15.3795 3.07695 14.9512 3.0538 14.6617 3.3027C12.9078 4.80193 10.4824 7.09419 8.99478 8.58763C7.50713 10.0753 5.21487 12.5007 3.70986 14.2546C3.46095 14.544 3.48989 14.9724 3.76195 15.2329L9.27263 20.3788C9.41155 20.5062 9.31315 20.7319 9.12792 20.7262L1.59126 20.4657C1.215 20.4541 0.890847 20.7377 0.861904 21.114C0.68246 23.4178 0.589844 26.752 0.589844 28.859C0.589844 30.9661 0.68246 34.3292 0.867693 36.633C0.896636 36.9919 1.19764 37.2698 1.55653 37.2582C3.21204 37.2003 7.61711 37.0498 9.13949 36.9977C9.32473 36.9919 9.41155 37.2177 9.27842 37.3392L3.75617 42.491C3.47832 42.7515 3.45516 43.1798 3.70407 43.4693C5.2033 45.2232 7.49555 47.6486 8.98899 49.1362C10.4766 50.6239 12.902 52.9161 14.656 54.4212C14.9454 54.6701 15.3737 54.6411 15.6342 54.3691L20.7802 48.8584C20.9076 48.7195 21.1333 48.8179 21.1275 49.0031L20.867 56.5398C20.8555 56.916 21.1391 57.2402 21.5154 57.2691C23.8192 57.4486 27.1534 57.5412 29.2604 57.5412C31.3674 57.5412 34.7306 57.4486 37.0344 57.2633C37.3933 57.2344 37.6711 56.9334 37.6595 56.5745C37.6017 54.919 37.4512 50.5139 37.3991 48.9915C37.3933 48.8063 37.619 48.7195 37.7406 48.8526L42.8924 54.3749C43.1529 54.6527 43.5812 54.6759 43.8706 54.427C45.6246 52.9277 48.0499 50.6355 49.5376 49.142C51.0252 47.6544 53.3175 45.229 54.8225 43.4751C55.0714 43.1856 55.0425 42.7573 54.7704 42.4968L46.8401 35.0991C46.5912 34.8675 46.1976 34.8791 45.9777 35.1396C44.6521 36.6678 42.2556 39.1858 40.9243 40.5229L40.9301 40.5171Z" fill="#BADCD3"/>
</svg>
